<svg xmlns="http://www.w3.org/2000/svg" xmlns:xlink="http://www.w3.org/1999/xlink" version="1.1" id="Your_Icon" x="0px" y="0px" width="100px" height="100px" viewBox="5.0 -10.0 100.0 135.0" enable-background="new 0 0 100 100" xml:space="preserve">
<g>
	<g>
		<g>
		</g>
	</g>
	<g>
	</g>
</g>
<g>
	<path fill="#000000" d="M29.687,60.49l-8.992,8.998v-7.936c0-0.824-0.669-1.504-1.495-1.504h-3.853   c-0.634,0-6.201-0.219-6.201-6.201V19.201c0-0.633,0.22-6.211,6.201-6.211h53.901c0.632,0.009,6.21,0.229,6.21,6.201v4.815   c0,0.825,0.67,1.496,1.495,1.496s1.497-0.67,1.497-1.496v-4.815c0-7.273-6.019-9.19-9.202-9.19H15.348   c-7.273,0-9.2,6.017-9.2,9.191v34.656c0,7.275,6.018,9.201,9.2,9.201h2.349v10.053c0,0.607,0.367,1.148,0.927,1.387   c0.183,0.072,0.375,0.109,0.578,0.109c0.385,0,0.77-0.148,1.055-0.441l11.549-11.549c0.586-0.586,0.586-1.531,0-2.117   C31.218,59.902,30.272,59.902,29.687,60.49z"/>
	<path fill="#000000" d="M84.651,29.244h-38.5c-3.183,0-9.201,1.927-9.201,9.201V69.25c0,7.275,6.018,9.201,9.201,9.201H57.7   c0.827,0,1.495-0.672,1.495-1.496c0-0.834-0.668-1.504-1.495-1.504H46.151c-0.632,0-6.199-0.221-6.199-6.201V38.446   c0-5.972,5.567-6.201,6.199-6.201h38.5c5.98,0,6.201,5.578,6.211,6.201V69.25c0,5.98-5.578,6.203-6.211,6.203h-7.695   c-0.826,0-1.497,0.668-1.497,1.504v7.936l-8.997-9c-0.589-0.586-1.533-0.586-2.119,0c-0.588,0.586-0.588,1.531,0,2.117   l11.549,11.549C76.185,89.854,76.562,90,76.956,90c0.191,0,0.384-0.037,0.567-0.111c0.56-0.238,0.928-0.779,0.928-1.385V78.451h6.2   c3.182,0,9.201-1.926,9.201-9.201V38.446C93.853,35.263,91.926,29.244,84.651,29.244z"/>
	<path fill="#000000" d="M50.004,47.646h30.804c0.824,0,1.496-0.67,1.496-1.496c0-0.836-0.672-1.504-1.496-1.504H50.004   c-0.824,0-1.504,0.67-1.504,1.504C48.5,46.977,49.178,47.646,50.004,47.646z"/>
	<path fill="#000000" d="M50.004,55.344h30.804c0.824,0,1.496-0.67,1.496-1.496s-0.672-1.494-1.496-1.494H50.004   c-0.824,0-1.504,0.668-1.504,1.494S49.178,55.344,50.004,55.344z"/>
	<path fill="#000000" d="M50.004,63.049h30.804c0.824,0,1.496-0.67,1.496-1.496c0-0.824-0.672-1.504-1.496-1.504H50.004   c-0.824,0-1.504,0.678-1.504,1.504C48.5,62.381,49.178,63.049,50.004,63.049z"/>
</g>
<text x="0.0" y="117.5" font-size="5.0" font-weight="bold" font-family="Helvetica Neue, Helvetica, Arial-Unicode, Arial, Sans-serif" fill="#000000">Created by Guillaume Bahri</text><text x="0.0" y="122.5" font-size="5.0" font-weight="bold" font-family="Helvetica Neue, Helvetica, Arial-Unicode, Arial, Sans-serif" fill="#000000">from the Noun Project</text></svg>