<svg xmlns="http://www.w3.org/2000/svg" xmlns:xlink="http://www.w3.org/1999/xlink" version="1.1" id="Layer_1" x="0px" y="0px" width="95.833px" height="100px" viewBox="0 0 95.833 100" enable-background="new 0 0 95.833 100" xml:space="preserve">
<circle fill="#000000" cx="14.583" cy="62.503" r="6.25"/>
<path fill="#000000" d="M25,81.254c0-5.752-4.666-10.421-10.421-10.421c-5.75,0-10.413,4.669-10.413,10.421l10.417,2.079L25,81.254z  "/>
<path fill="#000000" d="M14.583,100c-0.439,0-0.879-0.139-1.249-0.418c-1.482-1.109-4.675-1.749-8.756-1.749  c-1.353,0-2.287,0.073-2.326,0.078c-0.578,0.042-1.153-0.153-1.58-0.545C0.244,96.97,0,96.415,0,95.833V81.166  c0-1.115,0.879-2.032,1.994-2.081c0,0,0.442-0.021,1.176-0.021c2.966,0,8.098,0.292,11.539,2.08c3.413-1.788,8.425-2.08,11.32-2.08  c0.718,0,1.147,0.021,1.147,0.021c1.112,0.052,1.991,0.969,1.991,2.081v14.667c0,0.582-0.244,1.137-0.671,1.533  c-0.427,0.392-0.98,0.587-1.583,0.545c-0.037-0.005-0.971-0.078-2.323-0.078c-4.081,0-7.274,0.64-8.756,1.749  C15.462,99.861,15.022,100,14.583,100z M4.578,93.666c3.084,0,7.127,0.336,10.005,1.812c3.011-1.543,7.392-1.844,10.417-1.809  V83.246c-3.361,0.096-7.238,0.659-9.042,2.011c-0.741,0.556-1.758,0.556-2.499,0c-1.814-1.359-5.821-1.921-9.293-2.011v10.423  C4.299,93.666,4.438,93.666,4.578,93.666z"/>
<circle fill="#000000" cx="47.917" cy="6.252" r="6.25"/>
<path fill="#000000" d="M58.333,25.004c0-5.751-4.666-10.42-10.421-10.42c-5.75,0-10.413,4.669-10.413,10.42l10.542,2.336  L58.333,25.004z"/>
<path fill="#000000" d="M47.917,43.75c-0.439,0-0.879-0.138-1.249-0.417c-1.482-1.111-4.675-1.75-8.757-1.75  c-1.352,0-2.287,0.073-2.326,0.078c-0.58,0.042-1.153-0.153-1.58-0.545c-0.427-0.395-0.671-0.95-0.671-1.532V24.917  c0-1.115,0.879-2.032,1.994-2.081c0,0,0.442-0.021,1.176-0.021c2.966,0,8.097,0.291,11.539,2.079  c3.412-1.788,8.426-2.079,11.319-2.079c0.718,0,1.147,0.021,1.147,0.021c1.112,0.051,1.991,0.968,1.991,2.081v14.667  c0,0.582-0.244,1.137-0.671,1.532c-0.428,0.393-0.984,0.588-1.583,0.545c-0.036-0.004-0.971-0.078-2.323-0.078  c-4.081,0-7.274,0.639-8.757,1.75C48.795,43.612,48.356,43.75,47.917,43.75z M37.911,37.417c3.084,0,7.128,0.336,10.006,1.811  c3.011-1.542,7.379-1.839,10.417-1.809V26.996c-3.361,0.095-7.237,0.659-9.042,2.01c-0.741,0.558-1.758,0.558-2.499,0  c-1.815-1.359-5.821-1.92-9.293-2.01v10.422C37.633,37.417,37.771,37.417,37.911,37.417z"/>
<circle fill="#000000" cx="81.25" cy="62.503" r="6.25"/>
<path fill="#000000" d="M91.667,81.254c0-5.752-4.666-10.421-10.421-10.421c-5.749,0-10.412,4.669-10.412,10.421l10.542,2.336  L91.667,81.254z"/>
<path fill="#000000" d="M81.25,100c-0.439,0-0.879-0.139-1.249-0.418c-1.482-1.109-4.675-1.749-8.756-1.749  c-1.353,0-2.287,0.073-2.326,0.078c-0.573,0.042-1.153-0.153-1.58-0.545c-0.428-0.396-0.672-0.951-0.672-1.533V81.166  c0-1.115,0.879-2.032,1.994-2.081c0,0,0.441-0.021,1.176-0.021c2.966,0,8.098,0.292,11.538,2.08c3.413-1.788,8.426-2.08,11.32-2.08  c0.717,0,1.147,0.021,1.147,0.021c1.112,0.052,1.991,0.969,1.991,2.081v14.667c0,0.582-0.244,1.137-0.672,1.533  c-0.427,0.392-0.986,0.587-1.583,0.545c-0.036-0.005-0.971-0.078-2.323-0.078c-4.081,0-7.273,0.64-8.757,1.749  C82.128,99.861,81.689,100,81.25,100z M71.245,93.666c3.084,0,7.127,0.336,10.005,1.812c3.009-1.543,7.393-1.844,10.417-1.809  V83.246c-3.361,0.096-7.237,0.659-9.041,2.011c-0.741,0.556-1.758,0.556-2.499,0c-1.814-1.359-5.821-1.921-9.293-2.011v10.423  C70.966,93.666,71.104,93.666,71.245,93.666z"/>
<path fill="#000000" d="M47.917,66.667c-1.151,0-2.083-0.933-2.083-2.084V47.917c0-1.151,0.932-2.083,2.083-2.083  S50,46.765,50,47.917v16.667C50,65.734,49.068,66.667,47.917,66.667z"/>
<path fill="#000000" d="M64.581,75c-0.312,0-0.63-0.07-0.93-0.22l-15.734-7.867L32.182,74.78c-1.029,0.509-2.279,0.098-2.795-0.932  c-0.516-1.029-0.098-2.28,0.932-2.796l16.667-8.333c0.586-0.293,1.277-0.293,1.863,0l16.667,8.333  c1.029,0.516,1.447,1.767,0.932,2.796C66.081,74.579,65.345,75,64.581,75z"/>
</svg>